<?xml version="1.0" encoding="iso-8859-1"?>
<!-- Generator: Adobe Illustrator 16.0.0, SVG Export Plug-In . SVG Version: 6.00 Build 0)  -->
<!DOCTYPE svg PUBLIC "-//W3C//DTD SVG 1.1//EN" "http://www.w3.org/Graphics/SVG/1.1/DTD/svg11.dtd">
<svg version="1.1" id="Layer_1" xmlns="http://www.w3.org/2000/svg" xmlns:xlink="http://www.w3.org/1999/xlink" x="0px" y="0px"
	 width="52px" height="47.999px" viewBox="0 0 52 47.999" style="enable-background:new 0 0 52 47.999;" xml:space="preserve">
<g id="web_-_share_network">
	<g>
		<path style="fill:#22B35E;" d="M44,31.999c-2.678,0-5.042,1.32-6.494,3.34l-21.692-9.633c0.12-0.55,0.187-1.12,0.187-1.705
			c0-0.297-0.019-0.589-0.05-0.878l22.083-9.807c1.465,1.644,3.592,2.686,5.968,2.686c4.418,0,8-3.582,8-8.001c0-4.418-3.582-8-8-8
			c-4.419,0-8,3.582-8,8c0,0.585,0.066,1.155,0.187,1.705L14.493,19.34c-1.452-2.02-3.816-3.339-6.493-3.339c-4.419,0-8,3.58-8,8
			c0,4.418,3.581,7.998,8,7.998c2.375,0,4.503-1.041,5.968-2.685l22.083,9.808C36.019,39.41,36,39.702,36,39.999c0,4.42,3.581,8,8,8
			c4.418,0,8-3.58,8-8C52,35.581,48.418,31.999,44,31.999z M44,3.998c2.209,0,4,1.792,4,4.002c0,2.208-1.791,4-4,4
			c-2.21,0-4-1.792-4-4C40,5.79,41.79,3.998,44,3.998z M8,28c-2.209,0-4-1.79-4-3.999c0-2.211,1.791-4.002,4-4.002s4,1.791,4,4.002
			C12,26.21,10.209,28,8,28z M44,44.001c-2.21,0-4-1.792-4-4.002c0-2.209,1.79-3.998,4-3.998c2.209,0,4,1.789,4,3.998
			C48,42.209,46.209,44.001,44,44.001z"/>
	</g>
</g>
</svg>
