<?xml version="1.0" encoding="iso-8859-1"?>
<!-- Generator: Adobe Illustrator 16.0.0, SVG Export Plug-In . SVG Version: 6.00 Build 0)  -->
<!DOCTYPE svg PUBLIC "-//W3C//DTD SVG 1.1//EN" "http://www.w3.org/Graphics/SVG/1.1/DTD/svg11.dtd">
<svg version="1.1" id="Layer_1" xmlns="http://www.w3.org/2000/svg" xmlns:xlink="http://www.w3.org/1999/xlink" x="0px" y="0px"
	 width="64px" height="63.998px" viewBox="0 0 64 63.998" style="enable-background:new 0 0 64 63.998;" xml:space="preserve">
<g id="web_-_browser_windows">
	<g>
		<path style="fill:#5074B9;" d="M8,19.999h28v-4H8V19.999z M44,7.998H12c-6.628,0-12,5.375-12,12.001v32
			c0,6.627,5.372,11.999,12,11.999h32c6.627,0,12-5.372,12-11.999v-32C56,13.373,50.627,7.998,44,7.998z M52,51.999
			c0,4.419-3.582,8-8,8H12c-4.419,0-8-3.581-8-8v-24h48V51.999z M52,23.999H4v-4C4,15.581,7.581,12,12,12h32
			c4.418,0,8,3.581,8,7.999V23.999z M52,0H20c-3.549,0-6.729,1.549-8.926,3.998H52v0.001c4.418,0,8,3.58,8,8.001v40.925
			c2.449-2.197,4-5.376,4-8.924V12C64,5.37,58.627,0,52,0z M40,19.999h4v-4h-4V19.999z"/>
	</g>
</g>
</svg>
