<?xml version="1.0" encoding="iso-8859-1"?>
<!-- Generator: Adobe Illustrator 16.0.0, SVG Export Plug-In . SVG Version: 6.00 Build 0)  -->
<!DOCTYPE svg PUBLIC "-//W3C//DTD SVG 1.1//EN" "http://www.w3.org/Graphics/SVG/1.1/DTD/svg11.dtd">
<svg version="1.1" id="Layer_1" xmlns="http://www.w3.org/2000/svg" xmlns:xlink="http://www.w3.org/1999/xlink" x="0px" y="0px"
	 width="64px" height="58.001px" viewBox="0 0 64 58.001" style="enable-background:new 0 0 64 58.001;" xml:space="preserve">
<g id="interface_-_upload_cloud">
	<g>
		<path style="fill:#22B35E;" d="M49.123,12.462C46.785,5.232,40.007,0,32,0c-8.696,0-15.95,6.166-17.632,14.365
			C6.168,16.045,0,23.302,0,32.001C0,41.942,8.059,50,18,50c0.676,0,1.343-0.04,2-0.113V50h4v-4h-6c-7.732,0-14-6.268-14-13.999
			c0-7.733,6.268-13.999,14-13.999C18,10.268,24.268,4,32,4c7.064,0,12.893,5.239,13.848,12.043C53.734,16.484,60,23.002,60,31.001
			c0,7.946-6.185,14.432-14,14.948V46h-2v3.948C44.333,49.965,44.662,50,45,50c10.493,0,19-8.507,19-18.999
			C64,21.924,57.632,14.347,49.123,12.462z M47.429,37.43c0.763-0.763,0.763-2.001,0-2.763L35.723,22.962
			c-0.081-0.138-0.175-0.271-0.294-0.39c-0.39-0.392-0.904-0.58-1.415-0.571C34.009,22.001,34.005,22,34,22
			c-0.004,0-0.008,0.001-0.012,0.001c-0.513-0.009-1.027,0.179-1.418,0.571c-0.12,0.12-0.214,0.253-0.296,0.393L20.57,34.667
			c-0.763,0.762-0.763,2,0,2.763s2,0.763,2.763,0l8.666-8.666V56c0,1.104,0.896,2.001,2.001,2.001s2-0.896,2-2.001V28.763
			l8.667,8.667C45.43,38.192,46.666,38.192,47.429,37.43z"/>
	</g>
</g>
</svg>
