<?xml version="1.0" encoding="iso-8859-1"?>
<!-- Generator: Adobe Illustrator 16.0.0, SVG Export Plug-In . SVG Version: 6.00 Build 0)  -->
<!DOCTYPE svg PUBLIC "-//W3C//DTD SVG 1.1//EN" "http://www.w3.org/Graphics/SVG/1.1/DTD/svg11.dtd">
<svg version="1.1" id="Layer_1" xmlns="http://www.w3.org/2000/svg" xmlns:xlink="http://www.w3.org/1999/xlink" x="0px" y="0px"
	 width="52.284px" height="60.166px" viewBox="0 0 52.284 60.166" style="enable-background:new 0 0 52.284 60.166;"
	 xml:space="preserve">
<g id="misc_-_cube_polygon">
	<g>
		<path style="fill:#5074B9;" d="M52.121,20.164c0-0.56-0.116-1.091-0.324-1.575c0.807-1.513,0.592-3.429-0.684-4.704L27.878,1.012
			c-2.62-1.27-0.698-1.426-3.657,0L1.172,13.886c-1.265,1.264-1.487,3.157-0.705,4.664c-0.219,0.494-0.346,1.039-0.346,1.614v22.002
			c0,2.209,1.791,3.998,4,3.998l20,14.002c0.732,0,1.41-0.211,2-0.556c0.59,0.345,1.268,0.556,2,0.556l22-14.002
			c2.209,0,2-1.789,2-3.998V20.164z M24.121,56.164l-20-13.998V20.164l20,12.65V56.164z M26.977,29
			c-0.303,0.091-0.589,0.213-0.857,0.369c-0.242-0.138-0.497-0.253-0.766-0.341L4.121,16.166L26.078,3.84l22.041,12.325
			l-0.074,0.047L26.977,29z M48.121,42.166l-20,13.998v-23.35l20-12.65V42.166z"/>
	</g>
</g>
</svg>
