<?xml version="1.0" encoding="utf-8"?>
<!-- Generator: Adobe Illustrator 16.0.0, SVG Export Plug-In . SVG Version: 6.00 Build 0)  -->
<!DOCTYPE svg PUBLIC "-//W3C//DTD SVG 1.1//EN" "http://www.w3.org/Graphics/SVG/1.1/DTD/svg11.dtd">
<svg version="1.1" id="Layer_1" xmlns="http://www.w3.org/2000/svg" xmlns:xlink="http://www.w3.org/1999/xlink" x="0px" y="0px"
	 width="664px" height="518px" viewBox="0 0 664 518" enable-background="new 0 0 664 518" xml:space="preserve">
<path fill="none" stroke="#1BB45E" stroke-width="20" stroke-miterlimit="10" d="M100,10c-49.705,0-90,40.294-90,90v318
	c0,49.705,40.295,90,90,90h464c49.707,0,90-40.295,90-90V100c0-49.706-40.293-90-90-90H100z"/>
<circle fill="none" stroke="#1BB45E" stroke-width="15" stroke-miterlimit="10" cx="113" cy="113" r="43"/>
<circle fill="#1BB45E" cx="259" cy="113" r="50.5"/>
<circle fill="#1BB45E" cx="405" cy="113" r="50.5"/>
<circle fill="none" stroke="#1BB45E" stroke-width="15" stroke-miterlimit="10" cx="551" cy="113" r="43"/>
<circle fill="#1BB45E" cx="113" cy="259" r="50.5"/>
<circle fill="#1BB45E" cx="259" cy="259" r="50.5"/>
<circle fill="none" stroke="#1BB45E" stroke-width="15" stroke-miterlimit="10" cx="405" cy="259" r="43"/>
<circle fill="none" stroke="#1BB45E" stroke-width="15" stroke-miterlimit="10" cx="551" cy="259" r="43"/>
<circle fill="none" stroke="#1BB45E" stroke-width="15" stroke-miterlimit="10" cx="113" cy="405" r="43"/>
<circle fill="#1BB45E" cx="259" cy="405" r="50.5"/>
<circle fill="none" stroke="#1BB45E" stroke-width="15" stroke-miterlimit="10" cx="405" cy="405" r="43"/>
<circle fill="none" stroke="#1BB45E" stroke-width="15" stroke-miterlimit="10" cx="551" cy="405" r="43"/>
</svg>
