<?xml version="1.0" encoding="iso-8859-1"?>
<!-- Generator: Adobe Illustrator 16.0.0, SVG Export Plug-In . SVG Version: 6.00 Build 0)  -->
<!DOCTYPE svg PUBLIC "-//W3C//DTD SVG 1.1//EN" "http://www.w3.org/Graphics/SVG/1.1/DTD/svg11.dtd">
<svg version="1.1" id="Layer_1" xmlns="http://www.w3.org/2000/svg" xmlns:xlink="http://www.w3.org/1999/xlink" x="0px" y="0px"
	 width="48px" height="52.001px" viewBox="0 0 48 52.001" style="enable-background:new 0 0 48 52.001;" xml:space="preserve">
<g id="ecommerce_-_money_cash_coins_finance">
	<g>
		<path style="fill:#5074B9;" d="M47,18.002c0.647-1.268,1-2.61,1-4.001C48,6.271,37.255,0,24,0S0,6.271,0,14.001
			c0,1.391,0.353,2.733,1,4.001c-0.647,1.268-1,2.609-1,3.999c0,1.391,0.353,2.732,1,4c-0.647,1.268-1,2.611-1,4.001
			c0,1.39,0.353,2.731,1,3.999c-0.647,1.268-1,2.608-1,3.999c0,7.732,10.745,14,24,14s24-6.268,24-14
			c0-1.391-0.353-2.731-0.999-3.999C47.647,32.734,48,31.393,48,30.003c0-1.391-0.353-2.733-1-4.001c0.647-1.268,1-2.61,1-4
			C48,20.611,47.647,19.27,47,18.002z M24,48.001c-11.046,0-20-4.477-20-10c0-0.081,0.021-0.159,0.024-0.239
			C8.327,41.522,15.666,44.001,24,44.001s15.673-2.479,19.976-6.239C43.979,37.842,44,37.92,44,38.001
			C44,43.524,35.045,48.001,24,48.001z M24,40.003c-11.046,0-20-4.479-20-10c0-0.082,0.021-0.161,0.024-0.243
			C8.327,33.521,15.667,36.001,24,36.001c8.334,0,15.673-2.479,19.976-6.241C43.979,29.842,44,29.921,44,30.003
			C44,35.524,35.045,40.003,24,40.003z M24,32.002c-11.046,0-20-4.478-20-10.001c0-0.081,0.021-0.159,0.024-0.239
			C8.327,25.523,15.666,28.001,24,28.001s15.673-2.478,19.976-6.239C43.979,21.842,44,21.92,44,22.001
			C44,27.524,35.045,32.002,24,32.002z M24,24.003c-11.046,0-20-4.479-20-10.002c0-5.521,8.954-10,20-10c11.045,0,20,4.479,20,10
			C44,19.524,35.045,24.003,24,24.003z"/>
	</g>
</g>
</svg>
