<?xml version="1.0" encoding="iso-8859-1"?>
<!-- Generator: Adobe Illustrator 16.0.0, SVG Export Plug-In . SVG Version: 6.00 Build 0)  -->
<!DOCTYPE svg PUBLIC "-//W3C//DTD SVG 1.1//EN" "http://www.w3.org/Graphics/SVG/1.1/DTD/svg11.dtd">
<svg version="1.1" id="Layer_1" xmlns="http://www.w3.org/2000/svg" xmlns:xlink="http://www.w3.org/1999/xlink" x="0px" y="0px"
	 width="64px" height="62.018px" viewBox="0 0 64 62.018" style="enable-background:new 0 0 64 62.018;" xml:space="preserve">
<g id="interface_-_like_heart_love">
	<g>
		<path style="fill:#5074B9;" d="M46,0c-6,0-14,10-14,10S24,0,18,0C5.85,0,0,5.918,0,18.152c0,11.496,32,43.865,32,43.865
			s32-32.369,32-43.865C64,5.918,58.15,0,46,0z M32,56.013c0,0-28-27.622-28-37.323C4,8.368,7.368,3.999,18,3.999
			c3.154,0,14,9.999,14,9.999s10.846-9.999,14-9.999c10.631,0,14,4.369,14,14.69C60,28.391,32,56.013,32,56.013z"/>
	</g>
</g>
</svg>
