<?xml version="1.0" encoding="iso-8859-1"?>
<!-- Generator: Adobe Illustrator 16.0.0, SVG Export Plug-In . SVG Version: 6.00 Build 0)  -->
<!DOCTYPE svg PUBLIC "-//W3C//DTD SVG 1.1//EN" "http://www.w3.org/Graphics/SVG/1.1/DTD/svg11.dtd">
<svg version="1.1" id="Layer_1" xmlns="http://www.w3.org/2000/svg" xmlns:xlink="http://www.w3.org/1999/xlink" x="0px" y="0px"
	 width="60px" height="64px" viewBox="0 0 60 64" style="enable-background:new 0 0 60 64;" xml:space="preserve">
<g id="web_-_tech_server_memory_disk_storage">
	<g>
		<path style="fill:#22B35E;" d="M46.667,35.999h2.666c1.474,0,2.667-1.192,2.667-2.666v-2.667c0-1.474-1.193-2.665-2.667-2.665
			h-2.666c-1.473,0-2.667,1.191-2.667,2.665v2.667C44,34.807,45.194,35.999,46.667,35.999z M56,0H4C1.791,0,0,1.792,0,4.001v56
			C0,62.21,1.791,64,4,64h52c2.209,0,4-1.79,4-3.999v-56C60,1.792,58.209,0,56,0z M56,20.001H10c-1.104,0-2,0.895-2,1.999
			s0.896,2,2,2h46v16.001H10c-1.104,0-2,0.895-2,2c0,1.104,0.896,2,2,2h46V58c0,1.104-0.896,2.001-2,2.001H6
			c-1.104,0-2-0.896-2-2.001V6.001c0-1.105,0.896-2,2-2h48c1.104,0,2,0.895,2,2V20.001z M49.333,7.999h-2.666
			C45.194,7.999,44,9.195,44,10.667v2.666c0,1.473,1.194,2.668,2.667,2.668h2.666c1.474,0,2.667-1.195,2.667-2.668v-2.666
			C52,9.195,50.807,7.999,49.333,7.999z M46.667,55.999h2.666c1.474,0,2.667-1.193,2.667-2.665v-2.667
			C52,49.193,50.807,48,49.333,48h-2.666C45.194,48,44,49.193,44,50.667v2.667C44,54.806,45.194,55.999,46.667,55.999z"/>
	</g>
</g>
</svg>
