<?xml version="1.0" encoding="iso-8859-1"?>
<!-- Generator: Adobe Illustrator 16.0.0, SVG Export Plug-In . SVG Version: 6.00 Build 0)  -->
<!DOCTYPE svg PUBLIC "-//W3C//DTD SVG 1.1//EN" "http://www.w3.org/Graphics/SVG/1.1/DTD/svg11.dtd">
<svg version="1.1" id="Layer_1" xmlns="http://www.w3.org/2000/svg" xmlns:xlink="http://www.w3.org/1999/xlink" x="0px" y="0px"
	 width="52px" height="63.998px" viewBox="0 0 52 63.998" style="enable-background:new 0 0 52 63.998;" xml:space="preserve">
<g id="user_-_password_lock">
	<g>
		<path style="fill:#5074B9;" d="M34,43.997H22c-1.105,0-2,0.896-2,2.001c0,1.104,0.895,1.999,2,1.999h12c1.104,0,2-0.896,2-1.999
			C36,44.893,35.104,43.997,34,43.997z M44,23.998H12V18c0-7.731,6.268-14,14-14c7.051,0,12.867,5.218,13.841,11.999h4.042
			C42.886,7.001,35.265,0,26,0C16.059,0,8,8.06,8,18v5.998c-4.419,0-8,3.582-8,8.001v31.999h52V31.999
			C52,27.58,48.418,23.998,44,23.998z M48,55.999c0,2.207-1.791,3.997-4,3.997H8c-2.209,0-4-1.79-4-3.997v-24
			c0-2.209,1.791-4.001,4-4.001h36c2.209,0,4,1.792,4,4.001V55.999z"/>
	</g>
</g>
</svg>
