<?xml version="1.0" encoding="iso-8859-1"?>
<!-- Generator: Adobe Illustrator 16.0.0, SVG Export Plug-In . SVG Version: 6.00 Build 0)  -->
<!DOCTYPE svg PUBLIC "-//W3C//DTD SVG 1.1//EN" "http://www.w3.org/Graphics/SVG/1.1/DTD/svg11.dtd">
<svg version="1.1" id="Layer_1" xmlns="http://www.w3.org/2000/svg" xmlns:xlink="http://www.w3.org/1999/xlink" x="0px" y="0px"
	 width="64px" height="64.001px" viewBox="0 0 64 64.001" style="enable-background:new 0 0 64 64.001;" xml:space="preserve">
<g id="ecommerce_-_finance_coin_money_cash_dollar">
	<g>
		<path style="fill:#22B35E;" d="M32,0C14.327,0,0,14.326,0,32.001c0,17.672,14.327,32,32,32s32-14.328,32-32
			C64,14.326,49.673,0,32,0z M32,59.999c-15.464,0-28-12.537-28-27.998C4,16.535,16.536,3.999,32,3.999s28,12.536,28,28.002
			C60,47.462,47.464,59.999,32,59.999z M32.658,29.983V20.94c2.457,0.33,4.737,1.367,6.492,3.191l2.192-2.528
			c-2.149-2.117-5.044-3.526-8.685-3.817v-3.818h-2.676v3.776c-5.263,0.374-9.079,3.402-9.079,7.674
			c0,5.105,4.605,6.514,9.079,7.677v10.083c-3.465-0.374-6.141-2.034-7.807-3.901l-2.193,2.654c2.193,2.365,5.57,4.108,10,4.357
			v3.693h2.676v-3.693c6.799-0.456,9.343-4.357,9.343-8.09C42.001,32.763,37.176,31.187,32.658,29.983z M29.982,29.318
			c-2.982-0.827-5.307-1.825-5.307-4.106c0-2.406,2.193-4.148,5.307-4.356V29.318z M32.658,43.219v-9.461
			c3.07,0.873,5.57,1.991,5.57,4.688C38.229,40.438,36.825,42.804,32.658,43.219z"/>
	</g>
</g>
</svg>
