<?xml version="1.0" encoding="utf-8"?>
<!-- Generator: Adobe Illustrator 16.0.0, SVG Export Plug-In . SVG Version: 6.00 Build 0)  -->
<!DOCTYPE svg PUBLIC "-//W3C//DTD SVG 1.1//EN" "http://www.w3.org/Graphics/SVG/1.1/DTD/svg11.dtd">
<svg version="1.1" id="Layer_1" xmlns="http://www.w3.org/2000/svg" xmlns:xlink="http://www.w3.org/1999/xlink" x="0px" y="0px"
	 width="71.918px" height="71.793px" viewBox="0 0 71.918 71.793" enable-background="new 0 0 71.918 71.793" xml:space="preserve">
<g>
	<path d="M40.976,20.504L0,61.478l10.315,10.315l40.974-40.975L40.976,20.504z M31.284,34.755l9.689-9.691l5.757,5.756l-9.691,9.69
		L31.284,34.755z"/>
	<rect x="53.978" y="8.123" transform="matrix(0.707 0.7072 -0.7072 0.707 27.3993 -35.3776)" width="4.834" height="14.511"/>
	<rect x="49.142" y="43.738" transform="matrix(-0.707 -0.7072 0.7072 -0.707 63.63 118.6715)" width="14.508" height="4.835"/>
	<rect x="18.362" y="12.961" transform="matrix(0.7071 0.7071 -0.7071 0.7071 18.3776 -13.6105)" width="14.512" height="4.834"/>
	<rect x="38.59" y="0" width="4.837" height="14.508"/>
	<rect x="57.407" y="28.49" width="14.51" height="4.837"/>
</g>
</svg>
