<?xml version="1.0" encoding="iso-8859-1"?>
<!-- Generator: Adobe Illustrator 16.0.0, SVG Export Plug-In . SVG Version: 6.00 Build 0)  -->
<!DOCTYPE svg PUBLIC "-//W3C//DTD SVG 1.1//EN" "http://www.w3.org/Graphics/SVG/1.1/DTD/svg11.dtd">
<svg version="1.1" id="Layer_1" xmlns="http://www.w3.org/2000/svg" xmlns:xlink="http://www.w3.org/1999/xlink" x="0px" y="0px"
	 width="63.99px" height="56px" viewBox="0 0 63.99 56" style="enable-background:new 0 0 63.99 56;" xml:space="preserve">
<g id="user_-_male_group">
	<g>
		<path style="fill:#22B35E;" d="M61.229,36.812c-1.185-1.075-9.254-3.177-13.398-4.203c3.874-3.726,6.17-9.981,6.17-15.901
			C54.001,7.479,51.453,0,39.991,0c-3.626,0-6.355,0.752-8.398,2.067c2.839,0.192,5.074,0.89,6.802,2.004
			c0.505-0.051,1.032-0.083,1.597-0.083c8.329,0,9.995,5.747,9.995,12.837c0,5.151-2.046,10.812-5.514,13.529v2.632l0.551,1.812
			c4.157,1.077,11.185,2.945,12.882,3.7c2.375,1.059,3.137,6.405,0,7.501l-6.103-0.015c0.229,1.269,0.253,2.596,0.006,3.851
			c9.95-0.328,10.741-1.035,10.741-1.035C65.191,45.204,63.871,39.209,61.229,36.812z M31.681,38.572
			c3.965-3.912,6.32-10.606,6.32-16.938c0-9.738-2.548-17.633-14.01-17.633c-11.463,0-14.01,7.895-14.01,17.633
			c0,6.349,2.367,13.062,6.352,16.97c-4.183,1.016-12.31,3.095-13.545,4.207c-2.661,2.397-4.002,8.394-1.341,11.99
			c0,0,1.519,1.198,22.65,1.198s22.452-1.198,22.452-1.198c2.642-3.597,1.321-9.593-1.32-11.99
			C44.03,41.723,35.778,39.584,31.681,38.572z M41.905,52.001l-18.156-0.044c0,0-17.708,0.042-17.716,0.044
			c-3.575-1.269-1.762-6.438,0.624-7.5c1.811-0.808,8.828-2.88,12.365-3.906l0.485-1.608v-2.723
			c-3.466-2.912-5.511-8.973-5.511-14.49c0-7.594,1.665-13.75,9.994-13.75s9.995,6.156,9.995,13.75
			c0,5.519-2.046,11.581-5.514,14.493v2.72l0.551,1.813c4.158,1.076,11.185,2.944,12.882,3.701
			C44.28,45.56,45.042,50.906,41.905,52.001z"/>
	</g>
</g>
</svg>
