<?xml version="1.0" encoding="iso-8859-1"?>
<!-- Generator: Adobe Illustrator 16.0.0, SVG Export Plug-In . SVG Version: 6.00 Build 0)  -->
<!DOCTYPE svg PUBLIC "-//W3C//DTD SVG 1.1//EN" "http://www.w3.org/Graphics/SVG/1.1/DTD/svg11.dtd">
<svg version="1.1" id="Layer_1" xmlns="http://www.w3.org/2000/svg" xmlns:xlink="http://www.w3.org/1999/xlink" x="0px" y="0px"
	 width="64px" height="64px" viewBox="0 0 64 64" style="enable-background:new 0 0 64 64;" xml:space="preserve">
<g id="web_-_browser_tab_add">
	<g>
		<path style="fill:#22B35E;" d="M28,28h-4v7.999h-8v4h8v8.002h4v-8.002h8v-4h-8V28z M48,12.001H4c-2.21,0-4,1.789-4,3.998V60
			c0,2.21,1.79,4,4,4h44c2.209,0,4-1.79,4-4V15.999C52,13.79,50.209,12.001,48,12.001z M48,58c0,1.105-0.896,2-2,2H6
			c-1.104,0-2-0.895-2-2V18.001c0-1.104,0.896-2.002,2-2.002h40c1.104,0,2,0.898,2,2.002V58z M60,0H20c-2.209,0-4,1.79-4,4.001V8h4
			V6c0-1.103,0.896-1.999,2-1.999h36c1.104,0,2,0.896,2,1.999v36.001C60,43.105,59.104,44,58,44h-2v4.001h4c2.209,0,4-1.792,4-4.001
			V4.001C64,1.79,62.209,0,60,0z"/>
	</g>
</g>
</svg>
