<?xml version="1.0" encoding="iso-8859-1"?>
<!-- Generator: Adobe Illustrator 16.0.0, SVG Export Plug-In . SVG Version: 6.00 Build 0)  -->
<!DOCTYPE svg PUBLIC "-//W3C//DTD SVG 1.1//EN" "http://www.w3.org/Graphics/SVG/1.1/DTD/svg11.dtd">
<svg version="1.1" id="Layer_1" xmlns="http://www.w3.org/2000/svg" xmlns:xlink="http://www.w3.org/1999/xlink" x="0px" y="0px"
	 width="64.113px" height="63.98px" viewBox="0 0 64.113 63.98" style="enable-background:new 0 0 64.113 63.98;"
	 xml:space="preserve">
<g id="sport_-_reward_badge">
	<g>
		<path style="fill:#5074B9;" d="M63.873,52.487L53.855,33.963c1.392-3.039,2.173-6.415,2.173-9.976C56.028,10.74,45.289,0,32.041,0
			C18.792,0,8.052,10.74,8.052,23.987c0,3.628,0.81,7.066,2.252,10.149L0.246,52.48c-0.379,0.688-0.316,1.538,0.158,2.167
			c0.475,0.627,1.277,0.922,2.043,0.742l10.039-2.303l3.436,9.57c0.268,0.743,0.947,1.26,1.734,1.318
			c0.051,0.003,0.1,0.005,0.148,0.005c0.732,0,1.412-0.401,1.762-1.054l8.229-15.331c1.378,0.246,2.795,0.382,4.245,0.382
			c1.402,0,2.774-0.127,4.111-0.358l8.402,15.323c0.354,0.644,1.027,1.038,1.754,1.038c0.051,0,0.104-0.002,0.156-0.005
			c0.785-0.063,1.461-0.578,1.727-1.318l3.436-9.57l10.039,2.303c0.77,0.186,1.564-0.113,2.039-0.738
			C64.182,54.025,64.246,53.181,63.873,52.487z M18.168,57.073l-2.516-7.008c-0.344-0.953-1.342-1.51-2.33-1.273l-7.426,1.704
			l6.775-12.359c2.781,3.801,6.651,6.755,11.155,8.396L18.168,57.073z M32.073,43.971c-11.034,0-20.014-8.966-20.014-19.983
			c0-11.016,8.979-19.979,20.014-19.979s20.011,8.964,20.011,19.979C52.084,35.005,43.107,43.971,32.073,43.971z M50.791,48.792
			c-0.992-0.236-1.986,0.32-2.33,1.273l-2.533,7.062L40.14,46.572c4.601-1.65,8.547-4.667,11.357-8.561l6.755,12.49L50.791,48.792z"
			/>
	</g>
</g>
</svg>
